<?xml version="1.0" encoding="UTF-8" standalone="no"?>
<!-- Created with Inkscape (http://www.inkscape.org/) -->

<svg
   width="512px"
   height="512px"
   version="1.1"
   id="svg1"
   inkscape:version="1.4 (e7c3feb100, 2024-10-09)"
   sodipodi:docname="blazor.svg"
   xmlns:inkscape="http://www.inkscape.org/namespaces/inkscape"
   xmlns:sodipodi="http://sodipodi.sourceforge.net/DTD/sodipodi-0.dtd"
   xmlns="http://www.w3.org/2000/svg"
   xmlns:svg="http://www.w3.org/2000/svg">
  <sodipodi:namedview
     id="namedview1"
     pagecolor="#ffffff"
     bordercolor="#000000"
     borderopacity="0.25"
     inkscape:showpageshadow="2"
     inkscape:pageopacity="0.0"
     inkscape:pagecheckerboard="0"
     inkscape:deskcolor="#d1d1d1"
     inkscape:document-units="mm"
     inkscape:zoom="0.67615741"
     inkscape:cx="396.35741"
     inkscape:cy="561.25984"
     inkscape:window-width="1920"
     inkscape:window-height="968"
     inkscape:window-x="0"
     inkscape:window-y="48"
     inkscape:window-maximized="1"
     inkscape:current-layer="layer1" />
  <defs
     id="defs1" />
  <g
     inkscape:label="Layer 1"
     inkscape:groupmode="layer"
     id="layer1">
    <path
       style="fill:#5c2d91;stroke-width:0.505183;fill-opacity:1"
       d="M 177.19703,484.04247 C 117.67877,479.57623 67.006971,450.81537 35.397365,403.55841 18.358073,378.08444 8.2385654,349.48412 4.5960384,316.506 3.573614,307.24953 3.4311049,285.85298 4.3346798,277.26308 9.1394551,231.58678 28.12172,191.80541 60.31385,159.94743 c 14.285839,-14.1376 28.131876,-24.23705 45.14667,-32.93024 19.44838,-9.93658 36.88432,-15.47069 60.11718,-19.08087 6.37098,-0.98999 9.73014,-1.0847 51.02379,-1.43836 27.07136,-0.23188 46.16187,-0.60096 49.25569,-0.95246 21.35192,-2.42561 38.88082,-7.524341 57.59127,-16.75205 16.48007,-8.127677 30.60448,-18.243009 44.14282,-31.613433 3.16168,-3.122513 6.04911,-5.79258 6.41643,-5.933563 0.36731,-0.140955 1.16245,0.144035 1.76705,0.633787 l 1.09901,0.889908 -0.86983,6.536177 c -3.13088,23.526269 -11.00075,45.914634 -23.18589,65.959584 -2.4681,4.06023 -2.7193,4.91375 -1.73581,5.89724 0.9222,0.92223 2.55781,0.74429 8.15912,-0.88739 53.38094,-15.55034 85.06424,-41.132142 113.93873,-91.996308 6.54928,-11.537045 5.87813,-10.659662 8.01875,-10.482398 1.86625,0.154456 1.92555,0.228166 5.01408,6.218773 11.8596,23.003474 18.58993,47.506233 21.4386,78.051283 0.81814,8.77216 0.81772,34.85678 -10e-4,44.96157 -1.94362,23.99757 -5.77698,42.94458 -13.18505,65.16914 -18.39316,55.18104 -54.44026,104.43057 -102.81672,140.47388 -42.69034,31.80689 -92.27602,51.30741 -144.48339,56.82099 -17.85025,1.88512 -51.38866,1.85506 -64.38485,-0.0574 -24.75383,-3.64344 -47.6113,-13.61775 -67.21626,-29.33128 C 101.45982,378.7991 88.918509,363.09128 80.931522,346.7267 75.368793,335.32958 72.366648,325.79229 70.277019,312.87919 c -1.186825,-7.33374 -1.18854,-24.82127 -0.002,-32.73875 4.380592,-29.26092 16.579824,-53.27034 37.272031,-73.35479 19.16542,-18.60252 41.80399,-29.71299 69.14601,-33.93503 8.12269,-1.25429 26.72752,-1.2549 34.85785,-9.6e-4 36.57831,5.6403 67.472,25.47659 87.58495,56.23663 13.37646,20.45768 20.64634,45.94148 19.86884,69.64795 -0.41638,12.69327 -3.26752,21.47979 -9.00803,27.76092 -5.40991,5.91932 -10.15183,8.02494 -18.12112,8.04662 -13.72113,0.0364 -22.72762,-6.83214 -26.85919,-20.48591 -1.09295,-3.61192 -1.12806,-4.52289 -1.43697,-37.29725 -0.26407,-28.0163 -0.44463,-34.01477 -1.08748,-36.12345 -2.82642,-9.27161 -8.4597,-16.15233 -16.72622,-20.43005 -6.96193,-3.60259 -7.60313,-3.65717 -40.32645,-3.42675 -27.63032,0.19462 -29.21334,0.25593 -33.54554,1.2997 -10.56091,2.5448 -19.32714,6.28157 -27.56493,11.75021 -6.58504,4.37155 -16.39336,14.234 -20.8371,20.95215 -17.6216,26.64048 -17.61692,59.17606 0.006,85.82103 4.24997,6.42342 13.72747,16.0003 20.09931,20.31014 8.99457,6.08379 18.46562,10.1093 29.04822,12.34659 7.68973,1.62567 20.21119,1.64738 28.17067,0.0492 9.08677,-1.8249 17.45259,-5.06265 25.24873,-9.77168 6.43554,-3.88732 13.99713,-10.19949 17.62157,-14.71011 l 1.52798,-1.9016 1.86072,2.70157 c 2.63672,3.82825 9.03008,9.88627 13.44558,12.7402 9.75331,6.30383 21.35349,9.21329 34.61675,8.68229 7.80647,-0.31253 12.54938,-1.45549 19.33085,-4.65831 12.20024,-5.76204 22.12934,-15.88256 28.21017,-28.75386 6.05074,-12.80761 8.27263,-25.556 7.29416,-41.85125 -1.87065,-31.14945 -10.75007,-58.75689 -26.54703,-82.5386 -15.44885,-23.25741 -35.03963,-40.67171 -59.84677,-53.19793 -22.7104,-11.46743 -44.57621,-16.70017 -69.78541,-16.70017 -18.46461,0 -32.67908,2.20214 -48.93341,7.58068 -47.430295,15.69491 -84.245517,52.48364 -99.995288,99.92361 -11.406204,34.35682 -10.488594,71.50524 2.59484,105.05229 5.004248,12.83149 14.691086,29.58121 23.446335,40.54189 4.481286,5.61025 18.481483,19.61782 23.940613,23.95351 2.361711,1.87569 7.47673,5.53059 11.36668,8.12202 23.04573,15.35303 47.37792,23.96775 77.14481,27.31286 9.77263,1.09808 37.51932,1.5377 49.21614,0.77972 49.56073,-3.21203 95.91281,-16.17368 137.66157,-38.49503 7.63903,-4.0842 18.42807,-10.3954 22.51313,-13.1692 2.16214,-1.46815 3.15784,-1.24053 2.22213,0.50802 -0.76341,1.42658 -14.59237,14.65094 -21.69176,20.74356 -43.55837,37.38133 -95.25562,57.50312 -158.45093,61.67289 -6.9472,0.45832 -32.26288,0.57172 -37.63639,0.16854 z m -0.25263,-145.9475 c -7.31754,-1.60742 -14.96333,-5.61853 -20.58245,-10.7978 -6.63944,-6.11988 -11.15487,-13.41589 -13.61325,-21.99615 -0.9999,-3.49034 -1.1532,-5.14401 -1.12346,-12.12446 0.0312,-7.26865 0.17104,-8.53077 1.38915,-12.52698 2.60391,-8.54186 6.31741,-14.45692 13.08774,-20.84663 4.94721,-4.66913 9.92703,-7.65171 16.29563,-9.76002 7.0588,-2.33676 10.46739,-2.58583 35.39966,-2.58583 22.49026,0 22.97011,0.0199 23.98885,1.03952 1.02696,1.02698 1.03739,1.35149 0.86036,26.90123 -0.17115,24.68515 -0.22875,26.03454 -1.26881,29.66126 -4.48933,15.65491 -15.5785,27.15794 -30.94225,32.09698 -3.7657,1.21062 -5.25758,1.40106 -12.12449,1.54808 -5.70929,0.12224 -8.78833,-0.0424 -11.36668,-0.6092 z"
       id="path1" />
  </g>
</svg>
