<?xml version="1.0" encoding="UTF-8" standalone="no"?>
<!-- Created with Inkscape (http://www.inkscape.org/) -->

<svg
   version="1.1"
   id="svg2"
   width="623"
   height="199"
   viewBox="0 0 623 199"
   sodipodi:docname="odoo.svg"
   inkscape:version="1.2.2 (b0a8486541, 2022-12-01)"
   xmlns:inkscape="http://www.inkscape.org/namespaces/inkscape"
   xmlns:sodipodi="http://sodipodi.sourceforge.net/DTD/sodipodi-0.dtd"
   xmlns="http://www.w3.org/2000/svg"
   xmlns:svg="http://www.w3.org/2000/svg">
  <defs
     id="defs6" />
  <sodipodi:namedview
     id="namedview4"
     pagecolor="#505050"
     bordercolor="#ffffff"
     borderopacity="1"
     inkscape:showpageshadow="0"
     inkscape:pageopacity="0"
     inkscape:pagecheckerboard="1"
     inkscape:deskcolor="#505050"
     showgrid="false"
     inkscape:zoom="1.005618"
     inkscape:cx="274.95531"
     inkscape:cy="202.86034"
     inkscape:window-width="1366"
     inkscape:window-height="683"
     inkscape:window-x="0"
     inkscape:window-y="32"
     inkscape:window-maximized="1"
     inkscape:current-layer="g8" />
  <g
     inkscape:groupmode="layer"
     inkscape:label="Image"
     id="g8">
    <g
       id="g1798"
       transform="translate(-44,-192)">
      <path
         style="fill:#8f8f8f;fill-opacity:1;stroke:none"
         d="m 319.14351,254.63887 c -32.029,-19.60289 -74.379,-17.28469 -100.91,11.0039 -31.772,33.8781 -21.585,93.4291 18.91,115.6841 40.237,22.114 92.623,3.215 108.302,-40.688 8.27,-23.16 3.698,-52.7031 3.698,-77 v -45.99999 c 0,-6.8638 1.361,-14.5996 -4.109,-19.78627 -8.09,-7.67107 -20.962,-4.53823 -24.758,5.78627 -5.184,14.1021 -1.133,36.022 -1.133,50.99999 M 109.14352,242.07788 c -63.702034,9.9494 -89.010004,92.97799 -37.000004,133.89199 7.2966,5.74 16.0528,10.065 25.000003,12.517 11.886101,3.257 23.868401,3.667 36.000001,1.714 9.59999,-1.546 18.76499,-5.505 26.99999,-10.628 66.139,-41.141 25.642,-149.46519 -50.99999,-137.49499 m 316.99999,-0.0138 c -11.796,1.6056 -22.837,5.3351 -33,11.64039 -39.378,24.4318 -46.133,82.4654 -13.829,115.8444 16.819,17.38 42.326,23.855 65.829,20.801 9.597,-1.247 18.64,-4.801 27,-9.584 66.923,-38.289 31.152,-149.20389 -46,-138.70179 m 157,0.003 c -11.761,1.685 -23.005,5.4114 -33,11.91669 -39.989,26.027 -46.276,86.0511 -10,118.4811 17.069,15.26 40.535,20.804 63,17.885 9.871,-1.283 19.644,-5.038 28,-10.409 21.327,-13.711 35.777,-38.572 34.957,-64.302 -1.35,-42.3259 -39.456,-79.80379 -82.957,-73.57179 m -466.99999,29.87269 c 56.09399,-5.5185 63.48699,83.4781 7,89.5251 -45.085104,4.827 -65.988504,-57.329 -29.000001,-82.076 6.385001,-4.2719 14.376601,-6.6991 22.000001,-7.4491 m 151.99999,-7e-4 c 46.11,-6.6444 68.736,55.4948 31,81.4788 -5.39,3.712 -11.539,6.112 -18,7.087 -57.304,8.644 -70.936,-80.2175 -13,-88.5658 m 161,-0.0139 c 56.026,-6.7942 66.849,83.4317 10,89.5397 -46.289,4.974 -69.005,-56.801 -30,-82.7211 5.983,-3.9761 12.927,-5.9609 20,-6.8186 m 157,0.003 c 56.065,-7.2821 67.579,81.2576 11,89.4106 -45.262,6.522 -70.846,-57.499 -31,-82.2324 6.026,-3.7408 12.962,-6.2641 20,-7.1782 z"
         id="path294" />
      <path
         style="fill:#a24689;fill-opacity:1;stroke:none"
         d="m 109.1664,242.2247 c -63.702026,9.9494 -89.009996,92.97799 -36.999996,133.89199 7.2966,5.74 16.0528,10.065 25,12.517 11.886096,3.257 23.868396,3.667 35.999996,1.714 9.59999,-1.546 18.76499,-5.505 26.99999,-10.628 66.139,-41.141 25.642,-149.46519 -50.99999,-137.49499 m 7,29.86189 c 56.09399,-5.5185 63.48699,83.4781 7,89.5251 -45.085096,4.827 -65.988496,-57.329 -28.999996,-82.076 6.384996,-4.2719 14.376596,-6.6991 21.999996,-7.4491"
         id="path294-3"
         sodipodi:nodetypes="csccccccsc" />
    </g>
  </g>
  <g
     inkscape:groupmode="layer"
     id="layer1"
     inkscape:label="Image 1" />
</svg>
